<?xml version="1.0" standalone="no"?>
 <!DOCTYPE svg PUBLIC "-//W3C//DTD SVG 1.1//EN" 
 "http://www.w3.org/Graphics/SVG/1.1/DTD/svg11.dtd"> 
<svg
  xmlns:svg="http://www.w3.org/2000/svg"
  xmlns="http://www.w3.org/2000/svg"
  xmlns:xlink="http://www.w3.org/1999/xlink"
  version="1.1"
  width="29.700220cm" height="21.000720cm" viewBox="0 0 116930 82680">
<title>SVG Picture created as usb2RF-F_SilkS.svg date 2021/07/29 12:16:52 </title>
  <desc>Picture generated by PCBNEW </desc>
<g style="fill:#000000; fill-opacity:1;stroke:#000000; stroke-opacity:1;
stroke-linecap:round; stroke-linejoin:round;"
 transform="translate(0 0) scale(1 1)">
</g>
<g style="fill:#000000; fill-opacity:0.0; 
stroke:#000000; stroke-width:-0.000393701; stroke-opacity:1; 
stroke-linecap:round; stroke-linejoin:round;">
</g>
<g style="fill:#000000; fill-opacity:0.0; 
stroke:#000000; stroke-width:39.3701; stroke-opacity:1; 
stroke-linecap:round; stroke-linejoin:round;">
</g>
<g style="fill:#000000; fill-opacity:0.0; 
stroke:#000000; stroke-width:59.0551; stroke-opacity:1; 
stroke-linecap:round; stroke-linejoin:round;">
<rect x="69685.9" y="65357.2" width="42519.7" height="12598.4" rx="0" />
</g>
<g style="fill:#000000; fill-opacity:0.0; 
stroke:#000000; stroke-width:39.3701; stroke-opacity:1; 
stroke-linecap:round; stroke-linejoin:round;">
</g>
<g style="fill:#000000; fill-opacity:0.0; 
stroke:#000000; stroke-width:59.0551; stroke-opacity:1; 
stroke-linecap:round; stroke-linejoin:round;">
<rect x="3937.01" y="3937.01" width="109056" height="74806" rx="0" />
</g>
<g style="fill:#000000; fill-opacity:0.0; 
stroke:#000000; stroke-width:39.3701; stroke-opacity:1; 
stroke-linecap:round; stroke-linejoin:round;">
</g>
<g style="fill:#000000; fill-opacity:0.0; 
stroke:#000000; stroke-width:59.0551; stroke-opacity:1; 
stroke-linecap:round; stroke-linejoin:round;">
<rect x="4724.41" y="4724.41" width="107481" height="73231.2" rx="0" />
</g>
<g style="fill:#000000; fill-opacity:0.0; 
stroke:#000000; stroke-width:39.3701; stroke-opacity:1; 
stroke-linecap:round; stroke-linejoin:round;">
</g>
<g style="fill:#000000; fill-opacity:0.0; 
stroke:#000000; stroke-width:59.0551; stroke-opacity:1; 
stroke-linecap:round; stroke-linejoin:round;">
<path d="M23622 4724
L23622 3937
" />
</g>
<g style="fill:#000000; fill-opacity:0.0; 
stroke:#000000; stroke-width:39.3701; stroke-opacity:1; 
stroke-linecap:round; stroke-linejoin:round;">
</g>
<g style="fill:#000000; fill-opacity:0.0; 
stroke:#000000; stroke-width:59.0551; stroke-opacity:1; 
stroke-linecap:round; stroke-linejoin:round;">
<path d="M43307 4724
L43307 3937
" />
</g>
<g style="fill:#000000; fill-opacity:0.0; 
stroke:#000000; stroke-width:39.3701; stroke-opacity:1; 
stroke-linecap:round; stroke-linejoin:round;">
</g>
<g style="fill:#000000; fill-opacity:0.0; 
stroke:#000000; stroke-width:59.0551; stroke-opacity:1; 
stroke-linecap:round; stroke-linejoin:round;">
<path d="M62992 4724
L62992 3937
" />
</g>
<g style="fill:#000000; fill-opacity:0.0; 
stroke:#000000; stroke-width:39.3701; stroke-opacity:1; 
stroke-linecap:round; stroke-linejoin:round;">
</g>
<g style="fill:#000000; fill-opacity:0.0; 
stroke:#000000; stroke-width:59.0551; stroke-opacity:1; 
stroke-linecap:round; stroke-linejoin:round;">
<path d="M82677 4724
L82677 3937
" />
</g>
<g style="fill:#000000; fill-opacity:0.0; 
stroke:#000000; stroke-width:39.3701; stroke-opacity:1; 
stroke-linecap:round; stroke-linejoin:round;">
</g>
<g style="fill:#000000; fill-opacity:0.0; 
stroke:#000000; stroke-width:59.0551; stroke-opacity:1; 
stroke-linecap:round; stroke-linejoin:round;">
<path d="M102362 4724
L102362 3937
" />
</g>
<g style="fill:#000000; fill-opacity:0.0; 
stroke:#000000; stroke-width:39.3701; stroke-opacity:1; 
stroke-linecap:round; stroke-linejoin:round;">
</g>
<g style="fill:#000000; fill-opacity:0.0; 
stroke:#000000; stroke-width:59.0551; stroke-opacity:1; 
stroke-linecap:round; stroke-linejoin:round;">
<text x="13779.5" y="4586.61"
textLength="546.494" font-size="682.415" lengthAdjust="spacingAndGlyphs"
text-anchor="start" opacity="0">1</text>
<path d="M14199 4562
L13906 4562
" />
<path d="M14052 4562
L14052 4050
L14004 4123
L13955 4172
L13906 4196
" />
</g>
<g style="fill:#000000; fill-opacity:0.0; 
stroke:#000000; stroke-width:39.3701; stroke-opacity:1; 
stroke-linecap:round; stroke-linejoin:round;">
</g>
<g style="fill:#000000; fill-opacity:0.0; 
stroke:#000000; stroke-width:59.0551; stroke-opacity:1; 
stroke-linecap:round; stroke-linejoin:round;">
<text x="33464.6" y="4586.61"
textLength="546.494" font-size="682.415" lengthAdjust="spacingAndGlyphs"
text-anchor="start" opacity="0">2</text>
<path d="M33591 4099
L33615 4074
L33664 4050
L33786 4050
L33835 4074
L33859 4099
L33884 4147
L33884 4196
L33859 4269
L33567 4562
L33884 4562
" />
</g>
<g style="fill:#000000; fill-opacity:0.0; 
stroke:#000000; stroke-width:39.3701; stroke-opacity:1; 
stroke-linecap:round; stroke-linejoin:round;">
</g>
<g style="fill:#000000; fill-opacity:0.0; 
stroke:#000000; stroke-width:59.0551; stroke-opacity:1; 
stroke-linecap:round; stroke-linejoin:round;">
<text x="53149.6" y="4586.61"
textLength="546.494" font-size="682.415" lengthAdjust="spacingAndGlyphs"
text-anchor="start" opacity="0">3</text>
<path d="M53252 4050
L53569 4050
L53398 4245
L53471 4245
L53520 4269
L53544 4294
L53569 4342
L53569 4464
L53544 4513
L53520 4537
L53471 4562
L53325 4562
L53276 4537
L53252 4513
" />
</g>
<g style="fill:#000000; fill-opacity:0.0; 
stroke:#000000; stroke-width:39.3701; stroke-opacity:1; 
stroke-linecap:round; stroke-linejoin:round;">
</g>
<g style="fill:#000000; fill-opacity:0.0; 
stroke:#000000; stroke-width:59.0551; stroke-opacity:1; 
stroke-linecap:round; stroke-linejoin:round;">
<text x="72834.6" y="4586.61"
textLength="546.494" font-size="682.415" lengthAdjust="spacingAndGlyphs"
text-anchor="start" opacity="0">4</text>
<path d="M73205 4221
L73205 4562
" />
<path d="M73083 4026
L72961 4391
L73278 4391
" />
</g>
<g style="fill:#000000; fill-opacity:0.0; 
stroke:#000000; stroke-width:39.3701; stroke-opacity:1; 
stroke-linecap:round; stroke-linejoin:round;">
</g>
<g style="fill:#000000; fill-opacity:0.0; 
stroke:#000000; stroke-width:59.0551; stroke-opacity:1; 
stroke-linecap:round; stroke-linejoin:round;">
<text x="92519.7" y="4586.61"
textLength="546.494" font-size="682.415" lengthAdjust="spacingAndGlyphs"
text-anchor="start" opacity="0">5</text>
<path d="M92914 4050
L92671 4050
L92646 4294
L92671 4269
L92719 4245
L92841 4245
L92890 4269
L92914 4294
L92939 4342
L92939 4464
L92914 4513
L92890 4537
L92841 4562
L92719 4562
L92671 4537
L92646 4513
" />
</g>
<g style="fill:#000000; fill-opacity:0.0; 
stroke:#000000; stroke-width:39.3701; stroke-opacity:1; 
stroke-linecap:round; stroke-linejoin:round;">
</g>
<g style="fill:#000000; fill-opacity:0.0; 
stroke:#000000; stroke-width:59.0551; stroke-opacity:1; 
stroke-linecap:round; stroke-linejoin:round;">
<text x="112205" y="4586.61"
textLength="546.494" font-size="682.415" lengthAdjust="spacingAndGlyphs"
text-anchor="start" opacity="0">6</text>
<path d="M112575 4050
L112477 4050
L112429 4074
L112404 4099
L112356 4172
L112331 4269
L112331 4464
L112356 4513
L112380 4537
L112429 4562
L112526 4562
L112575 4537
L112599 4513
L112624 4464
L112624 4342
L112599 4294
L112575 4269
L112526 4245
L112429 4245
L112380 4269
L112356 4294
L112331 4342
" />
</g>
<g style="fill:#000000; fill-opacity:0.0; 
stroke:#000000; stroke-width:39.3701; stroke-opacity:1; 
stroke-linecap:round; stroke-linejoin:round;">
</g>
<g style="fill:#000000; fill-opacity:0.0; 
stroke:#000000; stroke-width:59.0551; stroke-opacity:1; 
stroke-linecap:round; stroke-linejoin:round;">
<path d="M23622 77955
L23622 78742
" />
</g>
<g style="fill:#000000; fill-opacity:0.0; 
stroke:#000000; stroke-width:39.3701; stroke-opacity:1; 
stroke-linecap:round; stroke-linejoin:round;">
</g>
<g style="fill:#000000; fill-opacity:0.0; 
stroke:#000000; stroke-width:59.0551; stroke-opacity:1; 
stroke-linecap:round; stroke-linejoin:round;">
<path d="M43307 77955
L43307 78742
" />
</g>
<g style="fill:#000000; fill-opacity:0.0; 
stroke:#000000; stroke-width:39.3701; stroke-opacity:1; 
stroke-linecap:round; stroke-linejoin:round;">
</g>
<g style="fill:#000000; fill-opacity:0.0; 
stroke:#000000; stroke-width:59.0551; stroke-opacity:1; 
stroke-linecap:round; stroke-linejoin:round;">
<path d="M62992 77955
L62992 78742
" />
</g>
<g style="fill:#000000; fill-opacity:0.0; 
stroke:#000000; stroke-width:39.3701; stroke-opacity:1; 
stroke-linecap:round; stroke-linejoin:round;">
</g>
<g style="fill:#000000; fill-opacity:0.0; 
stroke:#000000; stroke-width:59.0551; stroke-opacity:1; 
stroke-linecap:round; stroke-linejoin:round;">
<path d="M82677 77955
L82677 78742
" />
</g>
<g style="fill:#000000; fill-opacity:0.0; 
stroke:#000000; stroke-width:39.3701; stroke-opacity:1; 
stroke-linecap:round; stroke-linejoin:round;">
</g>
<g style="fill:#000000; fill-opacity:0.0; 
stroke:#000000; stroke-width:59.0551; stroke-opacity:1; 
stroke-linecap:round; stroke-linejoin:round;">
<path d="M102362 77955
L102362 78742
" />
</g>
<g style="fill:#000000; fill-opacity:0.0; 
stroke:#000000; stroke-width:39.3701; stroke-opacity:1; 
stroke-linecap:round; stroke-linejoin:round;">
</g>
<g style="fill:#000000; fill-opacity:0.0; 
stroke:#000000; stroke-width:59.0551; stroke-opacity:1; 
stroke-linecap:round; stroke-linejoin:round;">
<text x="13779.5" y="78605.2"
textLength="546.494" font-size="682.415" lengthAdjust="spacingAndGlyphs"
text-anchor="start" opacity="0">1</text>
<path d="M14199 78580
L13906 78580
" />
<path d="M14052 78580
L14052 78069
L14004 78142
L13955 78190
L13906 78215
" />
</g>
<g style="fill:#000000; fill-opacity:0.0; 
stroke:#000000; stroke-width:39.3701; stroke-opacity:1; 
stroke-linecap:round; stroke-linejoin:round;">
</g>
<g style="fill:#000000; fill-opacity:0.0; 
stroke:#000000; stroke-width:59.0551; stroke-opacity:1; 
stroke-linecap:round; stroke-linejoin:round;">
<text x="33464.6" y="78605.2"
textLength="546.494" font-size="682.415" lengthAdjust="spacingAndGlyphs"
text-anchor="start" opacity="0">2</text>
<path d="M33591 78117
L33615 78093
L33664 78069
L33786 78069
L33835 78093
L33859 78117
L33884 78166
L33884 78215
L33859 78288
L33567 78580
L33884 78580
" />
</g>
<g style="fill:#000000; fill-opacity:0.0; 
stroke:#000000; stroke-width:39.3701; stroke-opacity:1; 
stroke-linecap:round; stroke-linejoin:round;">
</g>
<g style="fill:#000000; fill-opacity:0.0; 
stroke:#000000; stroke-width:59.0551; stroke-opacity:1; 
stroke-linecap:round; stroke-linejoin:round;">
<text x="53149.6" y="78605.2"
textLength="546.494" font-size="682.415" lengthAdjust="spacingAndGlyphs"
text-anchor="start" opacity="0">3</text>
<path d="M53252 78069
L53569 78069
L53398 78263
L53471 78263
L53520 78288
L53544 78312
L53569 78361
L53569 78483
L53544 78532
L53520 78556
L53471 78580
L53325 78580
L53276 78556
L53252 78532
" />
</g>
<g style="fill:#000000; fill-opacity:0.0; 
stroke:#000000; stroke-width:39.3701; stroke-opacity:1; 
stroke-linecap:round; stroke-linejoin:round;">
</g>
<g style="fill:#000000; fill-opacity:0.0; 
stroke:#000000; stroke-width:59.0551; stroke-opacity:1; 
stroke-linecap:round; stroke-linejoin:round;">
<text x="72834.6" y="78605.2"
textLength="546.494" font-size="682.415" lengthAdjust="spacingAndGlyphs"
text-anchor="start" opacity="0">4</text>
<path d="M73205 78239
L73205 78580
" />
<path d="M73083 78044
L72961 78410
L73278 78410
" />
</g>
<g style="fill:#000000; fill-opacity:0.0; 
stroke:#000000; stroke-width:39.3701; stroke-opacity:1; 
stroke-linecap:round; stroke-linejoin:round;">
</g>
<g style="fill:#000000; fill-opacity:0.0; 
stroke:#000000; stroke-width:59.0551; stroke-opacity:1; 
stroke-linecap:round; stroke-linejoin:round;">
<text x="92519.7" y="78605.2"
textLength="546.494" font-size="682.415" lengthAdjust="spacingAndGlyphs"
text-anchor="start" opacity="0">5</text>
<path d="M92914 78069
L92671 78069
L92646 78312
L92671 78288
L92719 78263
L92841 78263
L92890 78288
L92914 78312
L92939 78361
L92939 78483
L92914 78532
L92890 78556
L92841 78580
L92719 78580
L92671 78556
L92646 78532
" />
</g>
<g style="fill:#000000; fill-opacity:0.0; 
stroke:#000000; stroke-width:39.3701; stroke-opacity:1; 
stroke-linecap:round; stroke-linejoin:round;">
</g>
<g style="fill:#000000; fill-opacity:0.0; 
stroke:#000000; stroke-width:59.0551; stroke-opacity:1; 
stroke-linecap:round; stroke-linejoin:round;">
<text x="112205" y="78605.2"
textLength="546.494" font-size="682.415" lengthAdjust="spacingAndGlyphs"
text-anchor="start" opacity="0">6</text>
<path d="M112575 78069
L112477 78069
L112429 78093
L112404 78117
L112356 78190
L112331 78288
L112331 78483
L112356 78532
L112380 78556
L112429 78580
L112526 78580
L112575 78556
L112599 78532
L112624 78483
L112624 78361
L112599 78312
L112575 78288
L112526 78263
L112429 78263
L112380 78288
L112356 78312
L112331 78361
" />
</g>
<g style="fill:#000000; fill-opacity:0.0; 
stroke:#000000; stroke-width:39.3701; stroke-opacity:1; 
stroke-linecap:round; stroke-linejoin:round;">
</g>
<g style="fill:#000000; fill-opacity:0.0; 
stroke:#000000; stroke-width:59.0551; stroke-opacity:1; 
stroke-linecap:round; stroke-linejoin:round;">
<path d="M3937 23622
L4724 23622
" />
</g>
<g style="fill:#000000; fill-opacity:0.0; 
stroke:#000000; stroke-width:39.3701; stroke-opacity:1; 
stroke-linecap:round; stroke-linejoin:round;">
</g>
<g style="fill:#000000; fill-opacity:0.0; 
stroke:#000000; stroke-width:59.0551; stroke-opacity:1; 
stroke-linecap:round; stroke-linejoin:round;">
<path d="M3937 43307
L4724 43307
" />
</g>
<g style="fill:#000000; fill-opacity:0.0; 
stroke:#000000; stroke-width:39.3701; stroke-opacity:1; 
stroke-linecap:round; stroke-linejoin:round;">
</g>
<g style="fill:#000000; fill-opacity:0.0; 
stroke:#000000; stroke-width:59.0551; stroke-opacity:1; 
stroke-linecap:round; stroke-linejoin:round;">
<path d="M3937 62992
L4724 62992
" />
</g>
<g style="fill:#000000; fill-opacity:0.0; 
stroke:#000000; stroke-width:39.3701; stroke-opacity:1; 
stroke-linecap:round; stroke-linejoin:round;">
</g>
<g style="fill:#000000; fill-opacity:0.0; 
stroke:#000000; stroke-width:59.0551; stroke-opacity:1; 
stroke-linecap:round; stroke-linejoin:round;">
<text x="4330.71" y="14035.4"
textLength="497.75" font-size="682.415" lengthAdjust="spacingAndGlyphs"
text-anchor="middle" opacity="0">A</text>
<path d="M4208 13864
L4452 13864
" />
<path d="M4160 14011
L4330 13499
L4501 14011
" />
</g>
<g style="fill:#000000; fill-opacity:0.0; 
stroke:#000000; stroke-width:39.3701; stroke-opacity:1; 
stroke-linecap:round; stroke-linejoin:round;">
</g>
<g style="fill:#000000; fill-opacity:0.0; 
stroke:#000000; stroke-width:59.0551; stroke-opacity:1; 
stroke-linecap:round; stroke-linejoin:round;">
<text x="4330.71" y="33720.5"
textLength="570.866" font-size="682.415" lengthAdjust="spacingAndGlyphs"
text-anchor="middle" opacity="0">B</text>
<path d="M4367 33428
L4440 33452
L4464 33476
L4489 33525
L4489 33598
L4464 33647
L4440 33671
L4391 33696
L4196 33696
L4196 33184
L4367 33184
L4416 33208
L4440 33233
L4464 33281
L4464 33330
L4440 33379
L4416 33403
L4367 33428
L4196 33428
" />
</g>
<g style="fill:#000000; fill-opacity:0.0; 
stroke:#000000; stroke-width:39.3701; stroke-opacity:1; 
stroke-linecap:round; stroke-linejoin:round;">
</g>
<g style="fill:#000000; fill-opacity:0.0; 
stroke:#000000; stroke-width:59.0551; stroke-opacity:1; 
stroke-linecap:round; stroke-linejoin:round;">
<text x="4330.71" y="53405.5"
textLength="570.866" font-size="682.415" lengthAdjust="spacingAndGlyphs"
text-anchor="middle" opacity="0">C</text>
<path d="M4489 53332
L4464 53356
L4391 53381
L4342 53381
L4269 53356
L4221 53308
L4196 53259
L4172 53161
L4172 53088
L4196 52991
L4221 52942
L4269 52893
L4342 52869
L4391 52869
L4464 52893
L4489 52918
" />
</g>
<g style="fill:#000000; fill-opacity:0.0; 
stroke:#000000; stroke-width:39.3701; stroke-opacity:1; 
stroke-linecap:round; stroke-linejoin:round;">
</g>
<g style="fill:#000000; fill-opacity:0.0; 
stroke:#000000; stroke-width:59.0551; stroke-opacity:1; 
stroke-linecap:round; stroke-linejoin:round;">
<text x="4330.71" y="73090.6"
textLength="570.866" font-size="682.415" lengthAdjust="spacingAndGlyphs"
text-anchor="middle" opacity="0">D</text>
<path d="M4196 73066
L4196 72554
L4318 72554
L4391 72578
L4440 72627
L4464 72676
L4489 72773
L4489 72846
L4464 72944
L4440 72993
L4391 73041
L4318 73066
L4196 73066
" />
</g>
<g style="fill:#000000; fill-opacity:0.0; 
stroke:#000000; stroke-width:39.3701; stroke-opacity:1; 
stroke-linecap:round; stroke-linejoin:round;">
</g>
<g style="fill:#000000; fill-opacity:0.0; 
stroke:#000000; stroke-width:59.0551; stroke-opacity:1; 
stroke-linecap:round; stroke-linejoin:round;">
<path d="M112992 23622
L112205 23622
" />
</g>
<g style="fill:#000000; fill-opacity:0.0; 
stroke:#000000; stroke-width:39.3701; stroke-opacity:1; 
stroke-linecap:round; stroke-linejoin:round;">
</g>
<g style="fill:#000000; fill-opacity:0.0; 
stroke:#000000; stroke-width:59.0551; stroke-opacity:1; 
stroke-linecap:round; stroke-linejoin:round;">
<path d="M112992 43307
L112205 43307
" />
</g>
<g style="fill:#000000; fill-opacity:0.0; 
stroke:#000000; stroke-width:39.3701; stroke-opacity:1; 
stroke-linecap:round; stroke-linejoin:round;">
</g>
<g style="fill:#000000; fill-opacity:0.0; 
stroke:#000000; stroke-width:59.0551; stroke-opacity:1; 
stroke-linecap:round; stroke-linejoin:round;">
<path d="M112992 62992
L112205 62992
" />
</g>
<g style="fill:#000000; fill-opacity:0.0; 
stroke:#000000; stroke-width:39.3701; stroke-opacity:1; 
stroke-linecap:round; stroke-linejoin:round;">
</g>
<g style="fill:#000000; fill-opacity:0.0; 
stroke:#000000; stroke-width:59.0551; stroke-opacity:1; 
stroke-linecap:round; stroke-linejoin:round;">
<text x="112599" y="14035.4"
textLength="497.75" font-size="682.415" lengthAdjust="spacingAndGlyphs"
text-anchor="middle" opacity="0">A</text>
<path d="M112477 13864
L112721 13864
" />
<path d="M112428 14011
L112599 13499
L112769 14011
" />
</g>
<g style="fill:#000000; fill-opacity:0.0; 
stroke:#000000; stroke-width:39.3701; stroke-opacity:1; 
stroke-linecap:round; stroke-linejoin:round;">
</g>
<g style="fill:#000000; fill-opacity:0.0; 
stroke:#000000; stroke-width:59.0551; stroke-opacity:1; 
stroke-linecap:round; stroke-linejoin:round;">
<text x="112599" y="33720.5"
textLength="570.866" font-size="682.415" lengthAdjust="spacingAndGlyphs"
text-anchor="middle" opacity="0">B</text>
<path d="M112635 33428
L112708 33452
L112733 33476
L112757 33525
L112757 33598
L112733 33647
L112708 33671
L112660 33696
L112465 33696
L112465 33184
L112635 33184
L112684 33208
L112708 33233
L112733 33281
L112733 33330
L112708 33379
L112684 33403
L112635 33428
L112465 33428
" />
</g>
<g style="fill:#000000; fill-opacity:0.0; 
stroke:#000000; stroke-width:39.3701; stroke-opacity:1; 
stroke-linecap:round; stroke-linejoin:round;">
</g>
<g style="fill:#000000; fill-opacity:0.0; 
stroke:#000000; stroke-width:59.0551; stroke-opacity:1; 
stroke-linecap:round; stroke-linejoin:round;">
<text x="112599" y="53405.5"
textLength="570.866" font-size="682.415" lengthAdjust="spacingAndGlyphs"
text-anchor="middle" opacity="0">C</text>
<path d="M112757 53332
L112733 53356
L112660 53381
L112611 53381
L112538 53356
L112489 53308
L112465 53259
L112440 53161
L112440 53088
L112465 52991
L112489 52942
L112538 52893
L112611 52869
L112660 52869
L112733 52893
L112757 52918
" />
</g>
<g style="fill:#000000; fill-opacity:0.0; 
stroke:#000000; stroke-width:39.3701; stroke-opacity:1; 
stroke-linecap:round; stroke-linejoin:round;">
</g>
<g style="fill:#000000; fill-opacity:0.0; 
stroke:#000000; stroke-width:59.0551; stroke-opacity:1; 
stroke-linecap:round; stroke-linejoin:round;">
<text x="112599" y="73090.6"
textLength="570.866" font-size="682.415" lengthAdjust="spacingAndGlyphs"
text-anchor="middle" opacity="0">D</text>
<path d="M112465 73066
L112465 72554
L112587 72554
L112660 72578
L112708 72627
L112733 72676
L112757 72773
L112757 72846
L112733 72944
L112708 72993
L112660 73041
L112587 73066
L112465 73066
" />
</g>
<g style="fill:#000000; fill-opacity:0.0; 
stroke:#000000; stroke-width:39.3701; stroke-opacity:1; 
stroke-linecap:round; stroke-linejoin:round;">
</g>
<g style="fill:#000000; fill-opacity:0.0; 
stroke:#000000; stroke-width:59.0551; stroke-opacity:1; 
stroke-linecap:round; stroke-linejoin:round;">
<text x="78741" y="76321.7"
textLength="2758.72" font-size="787.402" lengthAdjust="spacingAndGlyphs"
text-anchor="start" opacity="0">Date: </text>
<path d="M78911 76293
L78911 75703
L79051 75703
L79136 75731
L79192 75787
L79220 75843
L79248 75956
L79248 76040
L79220 76153
L79192 76209
L79136 76265
L79051 76293
L78911 76293
" />
<path d="M79754 76293
L79754 75984
L79726 75928
L79670 75899
L79557 75899
L79501 75928
" />
<path d="M79754 76265
L79698 76293
L79557 76293
L79501 76265
L79473 76209
L79473 76153
L79501 76096
L79557 76068
L79698 76068
L79754 76040
" />
<path d="M79951 75899
L80176 75899
" />
<path d="M80036 75703
L80036 76209
L80064 76265
L80120 76293
L80176 76293
" />
<path d="M80598 76265
L80542 76293
L80429 76293
L80373 76265
L80345 76209
L80345 75984
L80373 75928
L80429 75899
L80542 75899
L80598 75928
L80626 75984
L80626 76040
L80345 76096
" />
<path d="M80879 76237
L80907 76265
L80879 76293
L80851 76265
L80879 76237
L80879 76293
" />
<path d="M80879 75928
L80907 75956
L80879 75984
L80851 75956
L80879 75928
L80879 75984
" />
</g>
<g style="fill:#000000; fill-opacity:0.0; 
stroke:#000000; stroke-width:39.3701; stroke-opacity:1; 
stroke-linecap:round; stroke-linejoin:round;">
</g>
<g style="fill:#000000; fill-opacity:0.0; 
stroke:#000000; stroke-width:59.0551; stroke-opacity:1; 
stroke-linecap:round; stroke-linejoin:round;">
<path d="M69685 76577
L112205 76577
" />
</g>
<g style="fill:#000000; fill-opacity:0.0; 
stroke:#000000; stroke-width:39.3701; stroke-opacity:1; 
stroke-linecap:round; stroke-linejoin:round;">
</g>
<g style="fill:#000000; fill-opacity:0.0; 
stroke:#000000; stroke-width:59.0551; stroke-opacity:1; 
stroke-linecap:round; stroke-linejoin:round;">
<text x="70079.6" y="77424.1"
textLength="17522.5" font-size="787.402" lengthAdjust="spacingAndGlyphs"
text-anchor="start" opacity="0">KiCad E.D.A.  kicad (5.1.10-1-10_14)</text>
<path d="M70249 77395
L70249 76805
" />
<path d="M70587 77395
L70334 77058
" />
<path d="M70587 76805
L70249 77142
" />
<path d="M70840 77395
L70840 77002
" />
<path d="M70840 76805
L70812 76833
L70840 76861
L70868 76833
L70840 76805
L70840 76861
" />
<path d="M71458 77339
L71430 77367
L71346 77395
L71290 77395
L71205 77367
L71149 77311
L71121 77255
L71093 77142
L71093 77058
L71121 76946
L71149 76889
L71205 76833
L71290 76805
L71346 76805
L71430 76833
L71458 76861
" />
<path d="M71965 77395
L71965 77086
L71937 77030
L71880 77002
L71768 77002
L71712 77030
" />
<path d="M71965 77367
L71908 77395
L71768 77395
L71712 77367
L71683 77311
L71683 77255
L71712 77199
L71768 77171
L71908 77171
L71965 77142
" />
<path d="M72499 77395
L72499 76805
" />
<path d="M72499 77367
L72443 77395
L72330 77395
L72274 77367
L72246 77339
L72218 77283
L72218 77114
L72246 77058
L72274 77030
L72330 77002
L72443 77002
L72499 77030
" />
<path d="M73230 77086
L73427 77086
" />
<path d="M73511 77395
L73230 77395
L73230 76805
L73511 76805
" />
<path d="M73764 77339
L73793 77367
L73764 77395
L73736 77367
L73764 77339
L73764 77395
" />
<path d="M74046 77395
L74046 76805
L74186 76805
L74271 76833
L74327 76889
L74355 76946
L74383 77058
L74383 77142
L74355 77255
L74327 77311
L74271 77367
L74186 77395
L74046 77395
" />
<path d="M74636 77339
L74664 77367
L74636 77395
L74608 77367
L74636 77339
L74636 77395
" />
<path d="M74889 77227
L75171 77227
" />
<path d="M74833 77395
L75030 76805
L75227 77395
" />
<path d="M75424 77339
L75452 77367
L75424 77395
L75395 77367
L75424 77339
L75424 77395
" />
<path d="M76605 77395
L76605 76805
" />
<path d="M76661 77171
L76830 77395
" />
<path d="M76830 77002
L76605 77227
" />
<path d="M77083 77395
L77083 77002
" />
<path d="M77083 76805
L77055 76833
L77083 76861
L77111 76833
L77083 76805
L77083 76861
" />
<path d="M77617 77367
L77561 77395
L77448 77395
L77392 77367
L77364 77339
L77336 77283
L77336 77114
L77364 77058
L77392 77030
L77448 77002
L77561 77002
L77617 77030
" />
<path d="M78123 77395
L78123 77086
L78095 77030
L78039 77002
L77926 77002
L77870 77030
" />
<path d="M78123 77367
L78067 77395
L77926 77395
L77870 77367
L77842 77311
L77842 77255
L77870 77199
L77926 77171
L78067 77171
L78123 77142
" />
<path d="M78658 77395
L78658 76805
" />
<path d="M78658 77367
L78601 77395
L78489 77395
L78433 77367
L78404 77339
L78376 77283
L78376 77114
L78404 77058
L78433 77030
L78489 77002
L78601 77002
L78658 77030
" />
<path d="M79557 77620
L79529 77592
L79473 77508
L79445 77452
L79417 77367
L79389 77227
L79389 77114
L79417 76974
L79445 76889
L79473 76833
L79529 76749
L79557 76721
" />
<path d="M80064 76805
L79782 76805
L79754 77086
L79782 77058
L79839 77030
L79979 77030
L80036 77058
L80064 77086
L80092 77142
L80092 77283
L80064 77339
L80036 77367
L79979 77395
L79839 77395
L79782 77367
L79754 77339
" />
<path d="M80345 77339
L80373 77367
L80345 77395
L80317 77367
L80345 77339
L80345 77395
" />
<path d="M80935 77395
L80598 77395
" />
<path d="M80767 77395
L80767 76805
L80710 76889
L80654 76946
L80598 76974
" />
<path d="M81188 77339
L81217 77367
L81188 77395
L81160 77367
L81188 77339
L81188 77395
" />
<path d="M81779 77395
L81442 77395
" />
<path d="M81610 77395
L81610 76805
L81554 76889
L81498 76946
L81442 76974
" />
<path d="M82145 76805
L82201 76805
L82257 76833
L82285 76861
L82313 76917
L82341 77030
L82341 77171
L82313 77283
L82285 77339
L82257 77367
L82201 77395
L82145 77395
L82088 77367
L82060 77339
L82032 77283
L82004 77171
L82004 77030
L82032 76917
L82060 76861
L82088 76833
L82145 76805
" />
<path d="M82595 77171
L83045 77171
" />
<path d="M83635 77395
L83298 77395
" />
<path d="M83466 77395
L83466 76805
L83410 76889
L83354 76946
L83298 76974
" />
<path d="M83888 77171
L84338 77171
" />
<path d="M84929 77395
L84591 77395
" />
<path d="M84760 77395
L84760 76805
L84704 76889
L84647 76946
L84591 76974
" />
<path d="M85294 76805
L85350 76805
L85407 76833
L85435 76861
L85463 76917
L85491 77030
L85491 77171
L85463 77283
L85435 77339
L85407 77367
L85350 77395
L85294 77395
L85238 77367
L85210 77339
L85182 77283
L85154 77171
L85154 77030
L85182 76917
L85210 76861
L85238 76833
L85294 76805
" />
<path d="M85604 77452
L86054 77452
" />
<path d="M86503 77395
L86166 77395
" />
<path d="M86335 77395
L86335 76805
L86278 76889
L86222 76946
L86166 76974
" />
<path d="M87010 77002
L87010 77395
" />
<path d="M86869 76777
L86728 77199
L87094 77199
" />
<path d="M87263 77620
L87291 77592
L87347 77508
L87375 77452
L87403 77367
L87431 77227
L87431 77114
L87403 76974
L87375 76889
L87347 76833
L87291 76749
L87263 76721
" />
</g>
<g style="fill:#000000; fill-opacity:0.0; 
stroke:#000000; stroke-width:39.3701; stroke-opacity:1; 
stroke-linecap:round; stroke-linejoin:round;">
</g>
<g style="fill:#000000; fill-opacity:0.0; 
stroke:#000000; stroke-width:59.0551; stroke-opacity:1; 
stroke-linecap:round; stroke-linejoin:round;">
<path d="M69685 75396
L112205 75396
" />
</g>
<g style="fill:#000000; fill-opacity:0.0; 
stroke:#000000; stroke-width:39.3701; stroke-opacity:1; 
stroke-linecap:round; stroke-linejoin:round;">
</g>
<g style="fill:#000000; fill-opacity:0.0; 
stroke:#000000; stroke-width:118.11; stroke-opacity:1; 
stroke-linecap:round; stroke-linejoin:round;">
<text x="103544" y="76321.7"
textLength="2336.9" font-size="787.402" lengthAdjust="spacingAndGlyphs"
text-anchor="start" opacity="0">Rev: </text>
<path d="M104099 76293
L103902 76012
" />
<path d="M103761 76293
L103761 75703
L103986 75703
L104042 75731
L104070 75759
L104099 75815
L104099 75899
L104070 75956
L104042 75984
L103986 76012
L103761 76012
" />
<path d="M104577 76265
L104520 76293
L104408 76293
L104352 76265
L104323 76209
L104323 75984
L104352 75928
L104408 75899
L104520 75899
L104577 75928
L104605 75984
L104605 76040
L104323 76096
" />
<path d="M104802 75899
L104942 76293
L105083 75899
" />
<path d="M105308 76237
L105336 76265
L105308 76293
L105280 76265
L105308 76237
L105308 76293
" />
<path d="M105308 75928
L105336 75956
L105308 75984
L105280 75956
L105308 75928
L105308 75984
" />
</g>
<g style="fill:#000000; fill-opacity:0.0; 
stroke:#000000; stroke-width:39.3701; stroke-opacity:1; 
stroke-linecap:round; stroke-linejoin:round;">
</g>
<g style="fill:#000000; fill-opacity:0.0; 
stroke:#000000; stroke-width:59.0551; stroke-opacity:1; 
stroke-linecap:round; stroke-linejoin:round;">
<text x="70079.6" y="76321.7"
textLength="3781.21" font-size="787.402" lengthAdjust="spacingAndGlyphs"
text-anchor="start" opacity="0">Size: A4</text>
<path d="M70221 76265
L70305 76293
L70446 76293
L70502 76265
L70530 76237
L70559 76181
L70559 76124
L70530 76068
L70502 76040
L70446 76012
L70334 75984
L70277 75956
L70249 75928
L70221 75871
L70221 75815
L70249 75759
L70277 75731
L70334 75703
L70474 75703
L70559 75731
" />
<path d="M70812 76293
L70812 75899
" />
<path d="M70812 75703
L70784 75731
L70812 75759
L70840 75731
L70812 75703
L70812 75759
" />
<path d="M71037 75899
L71346 75899
L71037 76293
L71346 76293
" />
<path d="M71796 76265
L71740 76293
L71627 76293
L71571 76265
L71543 76209
L71543 75984
L71571 75928
L71627 75899
L71740 75899
L71796 75928
L71824 75984
L71824 76040
L71543 76096
" />
<path d="M72077 76237
L72105 76265
L72077 76293
L72049 76265
L72077 76237
L72077 76293
" />
<path d="M72077 75928
L72105 75956
L72077 75984
L72049 75956
L72077 75928
L72077 75984
" />
<path d="M72780 76124
L73061 76124
" />
<path d="M72724 76293
L72921 75703
L73118 76293
" />
<path d="M73568 75899
L73568 76293
" />
<path d="M73427 75674
L73286 76096
L73652 76096
" />
</g>
<g style="fill:#000000; fill-opacity:0.0; 
stroke:#000000; stroke-width:39.3701; stroke-opacity:1; 
stroke-linecap:round; stroke-linejoin:round;">
</g>
<g style="fill:#000000; fill-opacity:0.0; 
stroke:#000000; stroke-width:59.0551; stroke-opacity:1; 
stroke-linecap:round; stroke-linejoin:round;">
<text x="103544" y="77424.1"
textLength="3349.27" font-size="787.402" lengthAdjust="spacingAndGlyphs"
text-anchor="start" opacity="0">Id: 1/1</text>
<path d="M103714 77395
L103714 76805
" />
<path d="M104248 77395
L104248 76805
" />
<path d="M104248 77367
L104192 77395
L104079 77395
L104023 77367
L103995 77339
L103967 77283
L103967 77114
L103995 77058
L104023 77030
L104079 77002
L104192 77002
L104248 77030
" />
<path d="M104529 77339
L104557 77367
L104529 77395
L104501 77367
L104529 77339
L104529 77395
" />
<path d="M104529 77030
L104557 77058
L104529 77086
L104501 77058
L104529 77030
L104529 77086
" />
<path d="M105570 77395
L105232 77395
" />
<path d="M105401 77395
L105401 76805
L105345 76889
L105289 76946
L105232 76974
" />
<path d="M106245 76777
L105739 77536
" />
<path d="M106751 77395
L106413 77395
" />
<path d="M106582 77395
L106582 76805
L106526 76889
L106470 76946
L106413 76974
" />
</g>
<g style="fill:#000000; fill-opacity:0.0; 
stroke:#000000; stroke-width:39.3701; stroke-opacity:1; 
stroke-linecap:round; stroke-linejoin:round;">
</g>
<g style="fill:#000000; fill-opacity:0.0; 
stroke:#000000; stroke-width:59.0551; stroke-opacity:1; 
stroke-linecap:round; stroke-linejoin:round;">
<path d="M69685 73821
L112205 73821
" />
</g>
<g style="fill:#000000; fill-opacity:0.0; 
stroke:#000000; stroke-width:39.3701; stroke-opacity:1; 
stroke-linecap:round; stroke-linejoin:round;">
</g>
<g style="fill:#000000; fill-opacity:0.0; 
stroke:#000000; stroke-width:157.48; stroke-opacity:1; 
stroke-linecap:round; stroke-linejoin:round;">
<text x="70079.6" y="74924.1"
textLength="3701.14" font-size="1049.87" lengthAdjust="spacingAndGlyphs"
text-anchor="start" opacity="0">Title: </text>
<path d="M70360 74099
L70810 74099
" />
<path d="M70486 74886
L70585 74099
" />
<path d="M70974 74886
L71039 74361
" />
<path d="M71072 74099
L71030 74136
L71063 74174
L71105 74136
L71072 74099
L71063 74174
" />
<path d="M71302 74361
L71602 74361
" />
<path d="M71447 74099
L71363 74774
L71391 74849
L71461 74886
L71536 74886
" />
<path d="M71911 74886
L71841 74849
L71813 74774
L71897 74099
" />
<path d="M72516 74849
L72436 74886
L72286 74886
L72216 74849
L72187 74774
L72225 74474
L72272 74399
L72352 74361
L72501 74361
L72572 74399
L72600 74474
L72591 74549
L72206 74624
" />
<path d="M72895 74811
L72928 74849
L72886 74886
L72853 74849
L72895 74811
L72886 74886
" />
<path d="M72947 74399
L72980 74436
L72937 74474
L72905 74436
L72947 74399
L72937 74474
" />
</g>
<g style="fill:#000000; fill-opacity:0.0; 
stroke:#000000; stroke-width:39.3701; stroke-opacity:1; 
stroke-linecap:round; stroke-linejoin:round;">
</g>
<g style="fill:#000000; fill-opacity:0.0; 
stroke:#000000; stroke-width:59.0551; stroke-opacity:1; 
stroke-linecap:round; stroke-linejoin:round;">
<text x="70079.6" y="73408.3"
textLength="10384.7" font-size="787.402" lengthAdjust="spacingAndGlyphs"
text-anchor="start" opacity="0">File: usb2RF.kicad_pcb</text>
<path d="M70446 73070
L70249 73070
" />
<path d="M70249 73380
L70249 72789
L70530 72789
" />
<path d="M70755 73380
L70755 72986
" />
<path d="M70755 72789
L70727 72817
L70755 72845
L70784 72817
L70755 72789
L70755 72845
" />
<path d="M71121 73380
L71065 73352
L71037 73295
L71037 72789
" />
<path d="M71571 73352
L71515 73380
L71402 73380
L71346 73352
L71318 73295
L71318 73070
L71346 73014
L71402 72986
L71515 72986
L71571 73014
L71599 73070
L71599 73127
L71318 73183
" />
<path d="M71852 73323
L71880 73352
L71852 73380
L71824 73352
L71852 73323
L71852 73380
" />
<path d="M71852 73014
L71880 73042
L71852 73070
L71824 73042
L71852 73014
L71852 73070
" />
<path d="M72836 72986
L72836 73380
" />
<path d="M72583 72986
L72583 73295
L72611 73352
L72668 73380
L72752 73380
L72808 73352
L72836 73323
" />
<path d="M73090 73352
L73146 73380
L73258 73380
L73314 73352
L73343 73295
L73343 73267
L73314 73211
L73258 73183
L73174 73183
L73118 73155
L73090 73099
L73090 73070
L73118 73014
L73174 72986
L73258 72986
L73314 73014
" />
<path d="M73596 73380
L73596 72789
" />
<path d="M73596 73014
L73652 72986
L73764 72986
L73821 73014
L73849 73042
L73877 73099
L73877 73267
L73849 73323
L73821 73352
L73764 73380
L73652 73380
L73596 73352
" />
<path d="M74102 72845
L74130 72817
L74186 72789
L74327 72789
L74383 72817
L74411 72845
L74439 72902
L74439 72958
L74411 73042
L74074 73380
L74439 73380
" />
<path d="M75030 73380
L74833 73099
" />
<path d="M74692 73380
L74692 72789
L74917 72789
L74974 72817
L75002 72845
L75030 72902
L75030 72986
L75002 73042
L74974 73070
L74917 73099
L74692 73099
" />
<path d="M75480 73070
L75283 73070
" />
<path d="M75283 73380
L75283 72789
L75564 72789
" />
<path d="M75789 73323
L75817 73352
L75789 73380
L75761 73352
L75789 73323
L75789 73380
" />
<path d="M76070 73380
L76070 72789
" />
<path d="M76127 73155
L76295 73380
" />
<path d="M76295 72986
L76070 73211
" />
<path d="M76548 73380
L76548 72986
" />
<path d="M76548 72789
L76520 72817
L76548 72845
L76577 72817
L76548 72789
L76548 72845
" />
<path d="M77083 73352
L77027 73380
L76914 73380
L76858 73352
L76830 73323
L76802 73267
L76802 73099
L76830 73042
L76858 73014
L76914 72986
L77027 72986
L77083 73014
" />
<path d="M77589 73380
L77589 73070
L77561 73014
L77505 72986
L77392 72986
L77336 73014
" />
<path d="M77589 73352
L77533 73380
L77392 73380
L77336 73352
L77308 73295
L77308 73239
L77336 73183
L77392 73155
L77533 73155
L77589 73127
" />
<path d="M78123 73380
L78123 72789
" />
<path d="M78123 73352
L78067 73380
L77955 73380
L77898 73352
L77870 73323
L77842 73267
L77842 73099
L77870 73042
L77898 73014
L77955 72986
L78067 72986
L78123 73014
" />
<path d="M78264 73436
L78714 73436
" />
<path d="M78854 72986
L78854 73577
" />
<path d="M78854 73014
L78911 72986
L79023 72986
L79079 73014
L79108 73042
L79136 73099
L79136 73267
L79108 73323
L79079 73352
L79023 73380
L78911 73380
L78854 73352
" />
<path d="M79642 73352
L79586 73380
L79473 73380
L79417 73352
L79389 73323
L79361 73267
L79361 73099
L79389 73042
L79417 73014
L79473 72986
L79586 72986
L79642 73014
" />
<path d="M79895 73380
L79895 72789
" />
<path d="M79895 73014
L79951 72986
L80064 72986
L80120 73014
L80148 73042
L80176 73099
L80176 73267
L80148 73323
L80120 73352
L80064 73380
L79951 73380
L79895 73352
" />
</g>
<g style="fill:#000000; fill-opacity:0.0; 
stroke:#000000; stroke-width:39.3701; stroke-opacity:1; 
stroke-linecap:round; stroke-linejoin:round;">
</g>
<g style="fill:#000000; fill-opacity:0.0; 
stroke:#000000; stroke-width:59.0551; stroke-opacity:1; 
stroke-linecap:round; stroke-linejoin:round;">
<path d="M69685 71459
L112205 71459
" />
</g>
<g style="fill:#000000; fill-opacity:0.0; 
stroke:#000000; stroke-width:39.3701; stroke-opacity:1; 
stroke-linecap:round; stroke-linejoin:round;">
</g>
<g style="fill:#000000; fill-opacity:0.0; 
stroke:#000000; stroke-width:59.0551; stroke-opacity:1; 
stroke-linecap:round; stroke-linejoin:round;">
<text x="70079.6" y="72345.4"
textLength="3236.78" font-size="787.402" lengthAdjust="spacingAndGlyphs"
text-anchor="start" opacity="0">Sheet: </text>
<path d="M70221 72289
L70305 72317
L70446 72317
L70502 72289
L70530 72260
L70559 72204
L70559 72148
L70530 72092
L70502 72064
L70446 72036
L70334 72007
L70277 71979
L70249 71951
L70221 71895
L70221 71839
L70249 71782
L70277 71754
L70334 71726
L70474 71726
L70559 71754
" />
<path d="M70812 72317
L70812 71726
" />
<path d="M71065 72317
L71065 72007
L71037 71951
L70980 71923
L70896 71923
L70840 71951
L70812 71979
" />
<path d="M71571 72289
L71515 72317
L71402 72317
L71346 72289
L71318 72232
L71318 72007
L71346 71951
L71402 71923
L71515 71923
L71571 71951
L71599 72007
L71599 72064
L71318 72120
" />
<path d="M72077 72289
L72021 72317
L71908 72317
L71852 72289
L71824 72232
L71824 72007
L71852 71951
L71908 71923
L72021 71923
L72077 71951
L72105 72007
L72105 72064
L71824 72120
" />
<path d="M72274 71923
L72499 71923
" />
<path d="M72358 71726
L72358 72232
L72386 72289
L72443 72317
L72499 72317
" />
<path d="M72696 72260
L72724 72289
L72696 72317
L72668 72289
L72696 72260
L72696 72317
" />
<path d="M72696 71951
L72724 71979
L72696 72007
L72668 71979
L72696 71951
L72696 72007
" />
</g>
<g style="fill:#000000; fill-opacity:0.0; 
stroke:#000000; stroke-width:39.3701; stroke-opacity:1; 
stroke-linecap:round; stroke-linejoin:round;">
</g>
<g style="fill:#000000; fill-opacity:0.0; 
stroke:#000000; stroke-width:59.0551; stroke-opacity:1; 
stroke-linecap:round; stroke-linejoin:round;">
<path d="M77559 75396
L77559 76577
" />
</g>
<g style="fill:#000000; fill-opacity:0.0; 
stroke:#000000; stroke-width:39.3701; stroke-opacity:1; 
stroke-linecap:round; stroke-linejoin:round;">
</g>
<g style="fill:#000000; fill-opacity:0.0; 
stroke:#000000; stroke-width:59.0551; stroke-opacity:1; 
stroke-linecap:round; stroke-linejoin:round;">
<path d="M102756 75396
L102756 77955
" />
</g>
<g style="fill:#008484; fill-opacity:0.0; 
stroke:#008484; stroke-width:59.0551; stroke-opacity:1; 
stroke-linecap:round; stroke-linejoin:round;">
</g>
<g style="fill:#008484; fill-opacity:0.0; 
stroke:#008484; stroke-width:47.2441; stroke-opacity:1; 
stroke-linecap:round; stroke-linejoin:round;">
<path d="M42087 18350
L40512 18350
" />
<path d="M42087 19649
L42087 18350
" />
<path d="M33645 21633
L34610 21633
" />
<path d="M34354 20366
L33645 20366
" />
<path d="M40154 20169
L39869 20169
" />
<path d="M41530 21830
L41530 21545
" />
<path d="M41245 21830
L41530 21830
" />
<path d="M39869 21830
L39869 21545
" />
<path d="M40154 21830
L39869 21830
" />
<path d="M41530 20169
L41530 20454
" />
<path d="M41245 20169
L41530 20169
" />
<path d="M35806 16505
L35993 16505
" />
<path d="M35806 16094
L35993 16094
" />
<path d="M41156 14155
L41343 14155
" />
<path d="M41156 13744
L41343 13744
" />
<path d="M32888 16849
L33009 16849
" />
<path d="M32888 16550
L33009 16550
" />
<path d="M41138 15349
L41259 15349
" />
<path d="M41138 15050
L41259 15050
" />
<path d="M30989 14299
L31110 14299
" />
<path d="M30989 14000
L31110 14000
" />
<path d="M35499 22600
L35499 22900
" />
<path d="M35200 22600
L35499 22600
" />
<path d="M33097 25588
L33097 24014
" />
<path d="M33302 25588
L33097 25588
" />
<path d="M33302 24014
L33302 25588
" />
<path d="M33456 23573
L33443 23573
" />
<path d="M33450 23573
L33450 24014
" />
<path d="M33597 25588
L33597 24014
" />
<path d="M33802 25588
L33597 25588
" />
<path d="M33802 24014
L33802 25588
" />
<path d="M33956 23573
L33943 23573
" />
<path d="M33950 23573
L33950 24014
" />
<path d="M34097 25588
L34097 24014
" />
<path d="M34302 25588
L34097 25588
" />
<path d="M34302 24014
L34302 25588
" />
<path d="M34456 23573
L34443 23573
" />
<path d="M34450 23573
L34450 24014
" />
<path d="M34597 25588
L34597 24014
" />
<path d="M34802 25588
L34597 25588
" />
<path d="M34802 24014
L34802 25588
" />
<path d="M34956 23573
L34943 23573
" />
<path d="M34950 23573
L34950 24014
" />
<path d="M35137 24014
L35137 25588
" />
<path d="M35184 24014
L35184 25588
" />
<path d="M35231 24014
L35231 25588
" />
<path d="M35278 24014
L35278 25588
" />
<path d="M35097 25588
L35097 24014
" />
<path d="M35302 25588
L35097 25588
" />
<path d="M35302 24014
L35302 25588
" />
<path d="M32926 23573
L32956 23573
" />
<path d="M32926 24014
L32926 23573
" />
<path d="M35473 24014
L32926 24014
" />
<path d="M35473 23573
L35473 24014
" />
<path d="M35443 23573
L35473 23573
" />
<path d="M43826 20369
L43826 19932
" />
<path d="M43826 21467
L43826 21030
" />
<path d="M45287 20369
L45287 19932
" />
<path d="M45287 21467
L45287 21030
" />
<path d="M43610 20700
L43413 20601
" />
<path d="M43413 20601
L43413 20798
" />
<path d="M43413 20798
L43610 20700
" />
<path d="M32210 20430
L32033 20430
" />
<path d="M32210 20430
L32210 20607
" />
<path d="M31993 22635
L31993 22458
" />
<path d="M31265 22635
L31993 22635
" />
<path d="M30261 19564
L30360 19564
" />
<path d="M30261 22635
L30360 22635
" />
<path d="M31265 19564
L31993 19564
" />
<path d="M31993 19564
L31993 19741
" />
<path d="M32679 18542
L32679 18857
" />
<path d="M33120 18542
L33120 18857
" />
<path d="M30962 18958
L31437 18958
" />
<path d="M30962 18241
L31437 18241
" />
<path d="M30865 16739
L31764 16739
" />
<path d="M30865 16160
L30865 16739
" />
<path d="M31764 16160
L30865 16160
" />
<path d="M37365 14189
L38264 14189
" />
<path d="M37365 13610
L37365 14189
" />
<path d="M38264 13610
L37365 13610
" />
<path d="M37446 16641
L37531 16641
" />
<path d="M37446 16358
L37531 16358
" />
<path d="M38457 15241
L38542 15241
" />
<path d="M38457 14958
L38542 14958
" />
<path d="M31357 15341
L31442 15341
" />
<path d="M31357 15058
L31442 15058
" />
<path d="M32357 14541
L32442 14541
" />
<path d="M32357 14258
L32442 14258
" />
<path d="M39546 13991
L39631 13991
" />
<path d="M39546 13708
L39631 13708
" />
<path d="M39857 15341
L39942 15341
" />
<path d="M39857 15058
L39942 15058
" />
<path d="M35357 15241
L35442 15241
" />
<path d="M35357 14958
L35442 14958
" />
<path d="M34157 17241
L34242 17241
" />
<path d="M34157 16958
L34242 16958
" />
<path d="M32907 15441
L32992 15441
" />
<path d="M32907 15158
L32992 15158
" />
<path d="M41557 16641
L41642 16641
" />
<path d="M41557 16358
L41642 16358
" />
<path d="M34057 14741
L34142 14741
" />
<path d="M34057 14458
L34142 14458
" />
<path d="M36241 18653
L36241 18568
" />
<path d="M35958 18653
L35958 18568
" />
<path d="M38968 16641
L39053 16641
" />
<path d="M38968 16358
L39053 16358
" />
<path d="M29868 15241
L29953 15241
" />
<path d="M29868 14958
L29953 14958
" />
<path d="M34041 18742
L34041 18657
" />
<path d="M33758 18742
L33758 18657
" />
<path d="M40257 16741
L40342 16741
" />
<path d="M40257 16458
L40342 16458
" />
<path d="M35957 14091
L36042 14091
" />
<path d="M35957 13808
L36042 13808
" />
<path d="M34307 15941
L34392 15941
" />
<path d="M34307 15658
L34392 15658
" />
<path d="M35299 19322
L35299 18955
" />
<path d="M35299 18077
L35299 18444
" />
<path d="M35299 18077
L34448 18077
" />
<path d="M35299 19322
L34724 19322
" />
<path d="M38427 21840
L38427 22027
" />
<path d="M38427 22027
L38240 22027
" />
<path d="M36372 20159
L36372 19972
" />
<path d="M36372 19972
L36559 19972
" />
<path d="M36372 21840
L36372 22027
" />
<path d="M36372 22027
L36559 22027
" />
<path d="M38427 20159
L38427 19972
" />
</g>
<g style="fill:#008484; fill-opacity:0.0; 
stroke:#008484; stroke-width:59.0551; stroke-opacity:1; 
stroke-linecap:round; stroke-linejoin:round;">
<text x="41300" y="20161.4"
textLength="771.466" font-size="524.934" lengthAdjust="spacingAndGlyphs"
text-anchor="middle" opacity="0">Y1</text>
<path d="M41112 19955
L41112 20142
" />
<path d="M40981 19748
L41112 19955
L41243 19748
" />
<path d="M41581 20142
L41356 20142
" />
<path d="M41468 20142
L41468 19748
L41431 19805
L41393 19842
L41356 19861
" />
<text x="34000" y="22338.6"
textLength="864.173" font-size="524.934" lengthAdjust="spacingAndGlyphs"
text-anchor="middle" opacity="0">U3</text>
<path d="M33700 21926
L33700 22244
L33718 22282
L33737 22301
L33775 22319
L33850 22319
L33887 22301
L33906 22282
L33925 22244
L33925 21926
" />
<path d="M34074 21926
L34318 21926
L34187 22076
L34243 22076
L34281 22094
L34299 22113
L34318 22151
L34318 22244
L34299 22282
L34281 22301
L34243 22319
L34131 22319
L34093 22301
L34074 22282
" />
<text x="40700" y="19897.6"
textLength="864.173" font-size="524.934" lengthAdjust="spacingAndGlyphs"
text-anchor="middle" opacity="0">U1</text>
<path d="M40400 19485
L40400 19803
L40418 19841
L40437 19860
L40475 19878
L40550 19878
L40587 19860
L40606 19841
L40625 19803
L40625 19485
" />
<path d="M41018 19878
L40793 19878
" />
<path d="M40906 19878
L40906 19485
L40868 19541
L40831 19578
L40793 19597
" />
<text x="35900" y="15933.9"
textLength="845.426" font-size="524.934" lengthAdjust="spacingAndGlyphs"
text-anchor="middle" opacity="0">R5</text>
<path d="M35834 15915
L35703 15727
" />
<path d="M35609 15915
L35609 15521
L35759 15521
L35796 15540
L35815 15558
L35834 15596
L35834 15652
L35815 15690
L35796 15708
L35759 15727
L35609 15727
" />
<path d="M36190 15521
L36003 15521
L35984 15708
L36003 15690
L36040 15671
L36134 15671
L36171 15690
L36190 15708
L36209 15746
L36209 15840
L36190 15877
L36171 15896
L36134 15915
L36040 15915
L36003 15896
L35984 15877
" />
<text x="41250" y="13583.9"
textLength="845.426" font-size="524.934" lengthAdjust="spacingAndGlyphs"
text-anchor="middle" opacity="0">R4</text>
<path d="M41184 13565
L41053 13377
" />
<path d="M40959 13565
L40959 13171
L41109 13171
L41146 13190
L41165 13208
L41184 13246
L41184 13302
L41165 13340
L41146 13358
L41109 13377
L40959 13377
" />
<path d="M41521 13302
L41521 13565
" />
<path d="M41428 13152
L41334 13433
L41578 13433
" />
<text x="32949.2" y="16436.2"
textLength="845.426" font-size="524.934" lengthAdjust="spacingAndGlyphs"
text-anchor="middle" opacity="0">R3</text>
<path d="M32883 16417
L32752 16229
" />
<path d="M32658 16417
L32658 16023
L32808 16023
L32846 16042
L32864 16061
L32883 16098
L32883 16155
L32864 16192
L32846 16211
L32808 16229
L32658 16229
" />
<path d="M33014 16023
L33258 16023
L33127 16173
L33183 16173
L33221 16192
L33239 16211
L33258 16248
L33258 16342
L33239 16379
L33221 16398
L33183 16417
L33071 16417
L33033 16398
L33014 16379
" />
<text x="41199.2" y="14936.2"
textLength="845.426" font-size="524.934" lengthAdjust="spacingAndGlyphs"
text-anchor="middle" opacity="0">R2</text>
<path d="M41133 14917
L41002 14729
" />
<path d="M40908 14917
L40908 14523
L41058 14523
L41096 14542
L41114 14561
L41133 14598
L41133 14655
L41114 14692
L41096 14711
L41058 14729
L40908 14729
" />
<path d="M41283 14561
L41302 14542
L41339 14523
L41433 14523
L41471 14542
L41489 14561
L41508 14598
L41508 14636
L41489 14692
L41264 14917
L41508 14917
" />
<text x="31050" y="13886.2"
textLength="845.426" font-size="524.934" lengthAdjust="spacingAndGlyphs"
text-anchor="middle" opacity="0">R1</text>
<path d="M30984 13867
L30853 13679
" />
<path d="M30759 13867
L30759 13473
L30909 13473
L30946 13492
L30965 13511
L30984 13548
L30984 13605
L30965 13642
L30946 13661
L30909 13679
L30759 13679
" />
<path d="M31359 13867
L31134 13867
" />
<path d="M31246 13867
L31246 13473
L31209 13530
L31171 13567
L31134 13586
" />
<text x="36890.9" y="14636.2"
textLength="770.435" font-size="524.934" lengthAdjust="spacingAndGlyphs"
text-anchor="middle" opacity="0">L3</text>
<path d="M36825 14617
L36637 14617
L36637 14223
" />
<path d="M36919 14223
L37162 14223
L37031 14373
L37087 14373
L37125 14392
L37144 14411
L37162 14448
L37162 14542
L37144 14579
L37125 14598
L37087 14617
L36975 14617
L36937 14598
L36919 14579
" />
<text x="29629.9" y="13614.2"
textLength="770.435" font-size="524.934" lengthAdjust="spacingAndGlyphs"
text-anchor="middle" opacity="0">L2</text>
<path d="M29564 13595
L29376 13595
L29376 13201
" />
<path d="M29676 13239
L29695 13220
L29733 13201
L29826 13201
L29864 13220
L29883 13239
L29901 13276
L29901 13314
L29883 13370
L29658 13595
L29901 13595
" />
<text x="29900" y="16186.2"
textLength="770.435" font-size="524.934" lengthAdjust="spacingAndGlyphs"
text-anchor="middle" opacity="0">L1</text>
<path d="M29834 16167
L29646 16167
L29646 15773
" />
<path d="M30171 16167
L29946 16167
" />
<path d="M30059 16167
L30059 15773
L30021 15830
L29984 15867
L29946 15886
" />
<g transform="rotate(-90 35843.7 24107.7)">
<text x="35843.7" y="24304.5"
textLength="751.687" font-size="524.934" lengthAdjust="spacingAndGlyphs"
text-anchor="middle" opacity="0">J3</text>
</g>
<path d="M35628 24238
L35909 24238
L35965 24257
L36003 24295
L36021 24351
L36021 24388
" />
<path d="M35628 24088
L35628 23845
L35778 23976
L35778 23920
L35796 23882
L35815 23863
L35853 23845
L35946 23845
L35984 23863
L36003 23882
L36021 23920
L36021 24032
L36003 24070
L35984 24088
" />
<g transform="rotate(-90 43122 20700)">
<text x="43122" y="20896.9"
textLength="751.687" font-size="524.934" lengthAdjust="spacingAndGlyphs"
text-anchor="middle" opacity="0">J2</text>
</g>
<path d="M42906 20831
L43187 20831
L43243 20849
L43281 20887
L43300 20943
L43300 20981
" />
<path d="M42943 20662
L42925 20643
L42906 20606
L42906 20512
L42925 20475
L42943 20456
L42981 20437
L43018 20437
L43075 20456
L43300 20681
L43300 20437
" />
<g transform="rotate(-90 32525.4 21100)">
<text x="32525.4" y="21296.9"
textLength="751.687" font-size="524.934" lengthAdjust="spacingAndGlyphs"
text-anchor="middle" opacity="0">J1</text>
</g>
<path d="M32309 21231
L32591 21231
L32647 21249
L32684 21287
L32703 21343
L32703 21381
" />
<path d="M32703 20837
L32703 21062
" />
<path d="M32703 20950
L32309 20950
L32366 20987
L32403 21025
L32422 21062
" />
<g transform="rotate(-90 33510.2 18700)">
<text x="33510.2" y="18896.9"
textLength="1182.88" font-size="524.934" lengthAdjust="spacingAndGlyphs"
text-anchor="middle" opacity="0">FB1</text>
</g>
<path d="M33482 19028
L33482 19159
" />
<path d="M33688 19159
L33294 19159
L33294 18971
" />
<path d="M33482 18690
L33500 18634
L33519 18615
L33557 18596
L33613 18596
L33650 18615
L33669 18634
L33688 18671
L33688 18821
L33294 18821
L33294 18690
L33313 18653
L33332 18634
L33369 18615
L33407 18615
L33444 18634
L33463 18653
L33482 18690
L33482 18821
" />
<path d="M33688 18221
L33688 18446
" />
<path d="M33688 18334
L33294 18334
L33350 18371
L33388 18409
L33407 18446
" />
<text x="31200" y="18080.3"
textLength="789.183" font-size="524.934" lengthAdjust="spacingAndGlyphs"
text-anchor="middle" opacity="0">F1</text>
<path d="M31068 17855
L30937 17855
" />
<path d="M30937 18061
L30937 17667
L31125 17667
" />
<path d="M31481 18061
L31256 18061
" />
<path d="M31368 18061
L31368 17667
L31331 17724
L31293 17761
L31256 17780
" />
<text x="31450" y="16083.9"
textLength="845.426" font-size="524.934" lengthAdjust="spacingAndGlyphs"
text-anchor="middle" opacity="0">D2</text>
<path d="M31159 16065
L31159 15671
L31253 15671
L31309 15690
L31346 15727
L31365 15765
L31384 15840
L31384 15896
L31365 15971
L31346 16008
L31309 16046
L31253 16065
L31159 16065
" />
<path d="M31534 15708
L31553 15690
L31590 15671
L31684 15671
L31721 15690
L31740 15708
L31759 15746
L31759 15783
L31740 15840
L31515 16065
L31759 16065
" />
<text x="37950" y="13533.9"
textLength="845.426" font-size="524.934" lengthAdjust="spacingAndGlyphs"
text-anchor="middle" opacity="0">D1</text>
<path d="M37659 13515
L37659 13121
L37753 13121
L37809 13140
L37846 13177
L37865 13215
L37884 13290
L37884 13346
L37865 13421
L37846 13458
L37809 13496
L37753 13515
L37659 13515
" />
<path d="M38259 13515
L38034 13515
" />
<path d="M38146 13515
L38146 13121
L38109 13177
L38071 13215
L38034 13233
" />
<text x="37489" y="16240.2"
textLength="1220.38" font-size="524.934" lengthAdjust="spacingAndGlyphs"
text-anchor="middle" opacity="0">C17</text>
<path d="M37235 16183
L37217 16202
L37160 16221
L37123 16221
L37067 16202
L37029 16165
L37010 16127
L36992 16052
L36992 15996
L37010 15921
L37029 15883
L37067 15846
L37123 15827
L37160 15827
L37217 15846
L37235 15865
" />
<path d="M37610 16221
L37385 16221
" />
<path d="M37498 16221
L37498 15827
L37460 15883
L37423 15921
L37385 15940
" />
<path d="M37742 15827
L38004 15827
L37835 16221
" />
<text x="38500" y="14840.2"
textLength="1220.38" font-size="524.934" lengthAdjust="spacingAndGlyphs"
text-anchor="middle" opacity="0">C18</text>
<path d="M38246 14783
L38228 14802
L38171 14821
L38134 14821
L38078 14802
L38040 14765
L38021 14727
L38003 14652
L38003 14596
L38021 14521
L38040 14483
L38078 14446
L38134 14427
L38171 14427
L38228 14446
L38246 14465
" />
<path d="M38621 14821
L38396 14821
" />
<path d="M38509 14821
L38509 14427
L38471 14483
L38434 14521
L38396 14540
" />
<path d="M38846 14596
L38809 14577
L38790 14558
L38771 14521
L38771 14502
L38790 14465
L38809 14446
L38846 14427
L38921 14427
L38959 14446
L38978 14465
L38996 14502
L38996 14521
L38978 14558
L38959 14577
L38921 14596
L38846 14596
L38809 14615
L38790 14633
L38771 14671
L38771 14746
L38790 14783
L38809 14802
L38846 14821
L38921 14821
L38959 14802
L38978 14783
L38996 14746
L38996 14671
L38978 14633
L38959 14615
L38921 14596
" />
<text x="31400" y="14940.2"
textLength="1220.38" font-size="524.934" lengthAdjust="spacingAndGlyphs"
text-anchor="middle" opacity="0">C16</text>
<path d="M31146 14883
L31128 14902
L31071 14921
L31034 14921
L30978 14902
L30940 14865
L30921 14827
L30903 14752
L30903 14696
L30921 14621
L30940 14583
L30978 14546
L31034 14527
L31071 14527
L31128 14546
L31146 14565
" />
<path d="M31521 14921
L31296 14921
" />
<path d="M31409 14921
L31409 14527
L31371 14583
L31334 14621
L31296 14640
" />
<path d="M31859 14527
L31784 14527
L31746 14546
L31728 14565
L31690 14621
L31671 14696
L31671 14846
L31690 14883
L31709 14902
L31746 14921
L31821 14921
L31859 14902
L31878 14883
L31896 14846
L31896 14752
L31878 14715
L31859 14696
L31821 14677
L31746 14677
L31709 14696
L31690 14715
L31671 14752
" />
<text x="32400" y="14140.2"
textLength="1220.38" font-size="524.934" lengthAdjust="spacingAndGlyphs"
text-anchor="middle" opacity="0">C15</text>
<path d="M32146 14083
L32128 14102
L32071 14121
L32034 14121
L31978 14102
L31940 14065
L31921 14027
L31903 13952
L31903 13896
L31921 13821
L31940 13783
L31978 13746
L32034 13727
L32071 13727
L32128 13746
L32146 13765
" />
<path d="M32521 14121
L32296 14121
" />
<path d="M32409 14121
L32409 13727
L32371 13783
L32334 13821
L32296 13840
" />
<path d="M32878 13727
L32690 13727
L32671 13915
L32690 13896
L32728 13877
L32821 13877
L32859 13896
L32878 13915
L32896 13952
L32896 14046
L32878 14083
L32859 14102
L32821 14121
L32728 14121
L32690 14102
L32671 14083
" />
<text x="39589" y="13590.2"
textLength="1220.38" font-size="524.934" lengthAdjust="spacingAndGlyphs"
text-anchor="middle" opacity="0">C14</text>
<path d="M39335 13533
L39317 13552
L39260 13571
L39223 13571
L39167 13552
L39129 13515
L39110 13477
L39092 13402
L39092 13346
L39110 13271
L39129 13233
L39167 13196
L39223 13177
L39260 13177
L39317 13196
L39335 13215
" />
<path d="M39710 13571
L39485 13571
" />
<path d="M39598 13571
L39598 13177
L39560 13233
L39523 13271
L39485 13290
" />
<path d="M40048 13308
L40048 13571
" />
<path d="M39954 13158
L39860 13440
L40104 13440
" />
<text x="39900" y="14940.2"
textLength="1220.38" font-size="524.934" lengthAdjust="spacingAndGlyphs"
text-anchor="middle" opacity="0">C12</text>
<path d="M39646 14883
L39628 14902
L39571 14921
L39534 14921
L39478 14902
L39440 14865
L39421 14827
L39403 14752
L39403 14696
L39421 14621
L39440 14583
L39478 14546
L39534 14527
L39571 14527
L39628 14546
L39646 14565
" />
<path d="M40021 14921
L39796 14921
" />
<path d="M39909 14921
L39909 14527
L39871 14583
L39834 14621
L39796 14640
" />
<path d="M40171 14565
L40190 14546
L40228 14527
L40321 14527
L40359 14546
L40378 14565
L40396 14602
L40396 14640
L40378 14696
L40153 14921
L40396 14921
" />
<text x="35400" y="14840.2"
textLength="1220.38" font-size="524.934" lengthAdjust="spacingAndGlyphs"
text-anchor="middle" opacity="0">C13</text>
<path d="M35146 14783
L35128 14802
L35071 14821
L35034 14821
L34978 14802
L34940 14765
L34921 14727
L34903 14652
L34903 14596
L34921 14521
L34940 14483
L34978 14446
L35034 14427
L35071 14427
L35128 14446
L35146 14465
" />
<path d="M35521 14821
L35296 14821
" />
<path d="M35409 14821
L35409 14427
L35371 14483
L35334 14521
L35296 14540
" />
<path d="M35653 14427
L35896 14427
L35765 14577
L35821 14577
L35859 14596
L35878 14615
L35896 14652
L35896 14746
L35878 14783
L35859 14802
L35821 14821
L35709 14821
L35671 14802
L35653 14783
" />
<text x="34200" y="16840.2"
textLength="1220.38" font-size="524.934" lengthAdjust="spacingAndGlyphs"
text-anchor="middle" opacity="0">C11</text>
<path d="M33946 16783
L33928 16802
L33871 16821
L33834 16821
L33778 16802
L33740 16765
L33721 16727
L33703 16652
L33703 16596
L33721 16521
L33740 16483
L33778 16446
L33834 16427
L33871 16427
L33928 16446
L33946 16465
" />
<path d="M34321 16821
L34096 16821
" />
<path d="M34209 16821
L34209 16427
L34171 16483
L34134 16521
L34096 16540
" />
<path d="M34696 16821
L34471 16821
" />
<path d="M34584 16821
L34584 16427
L34546 16483
L34509 16521
L34471 16540
" />
<text x="32950" y="15040.2"
textLength="1220.38" font-size="524.934" lengthAdjust="spacingAndGlyphs"
text-anchor="middle" opacity="0">C10</text>
<path d="M32696 14983
L32678 15002
L32621 15021
L32584 15021
L32528 15002
L32490 14965
L32471 14927
L32453 14852
L32453 14796
L32471 14721
L32490 14683
L32528 14646
L32584 14627
L32621 14627
L32678 14646
L32696 14665
" />
<path d="M33071 15021
L32846 15021
" />
<path d="M32959 15021
L32959 14627
L32921 14683
L32884 14721
L32846 14740
" />
<path d="M33315 14627
L33353 14627
L33390 14646
L33409 14665
L33428 14702
L33446 14777
L33446 14871
L33428 14946
L33409 14983
L33390 15002
L33353 15021
L33315 15021
L33278 15002
L33259 14983
L33240 14946
L33221 14871
L33221 14777
L33240 14702
L33259 14665
L33278 14646
L33315 14627
" />
<text x="41600" y="16240.2"
textLength="845.426" font-size="524.934" lengthAdjust="spacingAndGlyphs"
text-anchor="middle" opacity="0">C9</text>
<path d="M41534 16183
L41515 16202
L41459 16221
L41421 16221
L41365 16202
L41328 16165
L41309 16127
L41290 16052
L41290 15996
L41309 15921
L41328 15883
L41365 15846
L41421 15827
L41459 15827
L41515 15846
L41534 15865
" />
<path d="M41721 16221
L41796 16221
L41834 16202
L41853 16183
L41890 16127
L41909 16052
L41909 15902
L41890 15865
L41871 15846
L41834 15827
L41759 15827
L41721 15846
L41703 15865
L41684 15902
L41684 15996
L41703 16033
L41721 16052
L41759 16071
L41834 16071
L41871 16052
L41890 16033
L41909 15996
" />
<text x="34100" y="14340.2"
textLength="845.426" font-size="524.934" lengthAdjust="spacingAndGlyphs"
text-anchor="middle" opacity="0">C8</text>
<path d="M34034 14283
L34015 14302
L33959 14321
L33921 14321
L33865 14302
L33828 14265
L33809 14227
L33790 14152
L33790 14096
L33809 14021
L33828 13983
L33865 13946
L33921 13927
L33959 13927
L34015 13946
L34034 13965
" />
<path d="M34259 14096
L34221 14077
L34203 14058
L34184 14021
L34184 14002
L34203 13965
L34221 13946
L34259 13927
L34334 13927
L34371 13946
L34390 13965
L34409 14002
L34409 14021
L34390 14058
L34371 14077
L34334 14096
L34259 14096
L34221 14115
L34203 14133
L34184 14171
L34184 14246
L34203 14283
L34221 14302
L34259 14321
L34334 14321
L34371 14302
L34390 14283
L34409 14246
L34409 14171
L34390 14133
L34371 14115
L34334 14096
" />
<g transform="rotate(-90 35643.3 18611)">
<text x="35643.3" y="18807.9"
textLength="845.426" font-size="524.934" lengthAdjust="spacingAndGlyphs"
text-anchor="middle" opacity="0">C7</text>
</g>
<path d="M35783 18676
L35802 18695
L35821 18751
L35821 18789
L35802 18845
L35765 18882
L35727 18901
L35652 18920
L35596 18920
L35521 18901
L35483 18882
L35446 18845
L35427 18789
L35427 18751
L35446 18695
L35465 18676
" />
<path d="M35427 18545
L35427 18282
L35821 18451
" />
<text x="39011" y="16240.2"
textLength="845.426" font-size="524.934" lengthAdjust="spacingAndGlyphs"
text-anchor="middle" opacity="0">C6</text>
<path d="M38945 16183
L38926 16202
L38870 16221
L38832 16221
L38776 16202
L38739 16165
L38720 16127
L38701 16052
L38701 15996
L38720 15921
L38739 15883
L38776 15846
L38832 15827
L38870 15827
L38926 15846
L38945 15865
" />
<path d="M39282 15827
L39207 15827
L39170 15846
L39151 15865
L39114 15921
L39095 15996
L39095 16146
L39114 16183
L39132 16202
L39170 16221
L39245 16221
L39282 16202
L39301 16183
L39320 16146
L39320 16052
L39301 16015
L39282 15996
L39245 15977
L39170 15977
L39132 15996
L39114 16015
L39095 16052
" />
<text x="29911" y="14840.2"
textLength="845.426" font-size="524.934" lengthAdjust="spacingAndGlyphs"
text-anchor="middle" opacity="0">C5</text>
<path d="M29845 14783
L29826 14802
L29770 14821
L29732 14821
L29676 14802
L29639 14765
L29620 14727
L29601 14652
L29601 14596
L29620 14521
L29639 14483
L29676 14446
L29732 14427
L29770 14427
L29826 14446
L29845 14465
" />
<path d="M30201 14427
L30014 14427
L29995 14615
L30014 14596
L30051 14577
L30145 14577
L30182 14596
L30201 14615
L30220 14652
L30220 14746
L30201 14783
L30182 14802
L30145 14821
L30051 14821
L30014 14802
L29995 14783
" />
<g transform="rotate(-90 33443.3 18700)">
<text x="33443.3" y="18896.9"
textLength="845.426" font-size="524.934" lengthAdjust="spacingAndGlyphs"
text-anchor="middle" opacity="0">C4</text>
</g>
<path d="M33583 18765
L33602 18784
L33621 18840
L33621 18878
L33602 18934
L33565 18971
L33527 18990
L33452 19009
L33396 19009
L33321 18990
L33283 18971
L33246 18934
L33227 18878
L33227 18840
L33246 18784
L33265 18765
" />
<path d="M33358 18428
L33621 18428
" />
<path d="M33208 18521
L33490 18615
L33490 18371
" />
<text x="40300" y="16340.2"
textLength="845.426" font-size="524.934" lengthAdjust="spacingAndGlyphs"
text-anchor="middle" opacity="0">C3</text>
<path d="M40234 16283
L40215 16302
L40159 16321
L40121 16321
L40065 16302
L40028 16265
L40009 16227
L39990 16152
L39990 16096
L40009 16021
L40028 15983
L40065 15946
L40121 15927
L40159 15927
L40215 15946
L40234 15965
" />
<path d="M40365 15927
L40609 15927
L40478 16077
L40534 16077
L40571 16096
L40590 16115
L40609 16152
L40609 16246
L40590 16283
L40571 16302
L40534 16321
L40421 16321
L40384 16302
L40365 16283
" />
<text x="36000" y="13690.2"
textLength="845.426" font-size="524.934" lengthAdjust="spacingAndGlyphs"
text-anchor="middle" opacity="0">C2</text>
<path d="M35934 13633
L35915 13652
L35859 13671
L35821 13671
L35765 13652
L35728 13615
L35709 13577
L35690 13502
L35690 13446
L35709 13371
L35728 13333
L35765 13296
L35821 13277
L35859 13277
L35915 13296
L35934 13315
" />
<path d="M36084 13315
L36103 13296
L36140 13277
L36234 13277
L36271 13296
L36290 13315
L36309 13352
L36309 13390
L36290 13446
L36065 13671
L36309 13671
" />
<text x="34350" y="15540.2"
textLength="845.426" font-size="524.934" lengthAdjust="spacingAndGlyphs"
text-anchor="middle" opacity="0">C1</text>
<path d="M34284 15483
L34265 15502
L34209 15521
L34171 15521
L34115 15502
L34078 15465
L34059 15427
L34040 15352
L34040 15296
L34059 15221
L34078 15183
L34115 15146
L34171 15127
L34209 15127
L34265 15146
L34284 15165
" />
<path d="M34659 15521
L34434 15521
" />
<path d="M34546 15521
L34546 15127
L34509 15183
L34471 15221
L34434 15240
" />
<text x="35000" y="17912.6"
textLength="864.173" font-size="524.934" lengthAdjust="spacingAndGlyphs"
text-anchor="middle" opacity="0">U2</text>
<path d="M34700 17500
L34700 17818
L34718 17856
L34737 17875
L34775 17893
L34850 17893
L34887 17875
L34906 17856
L34925 17818
L34925 17500
" />
<path d="M35093 17537
L35112 17518
L35149 17500
L35243 17500
L35281 17518
L35299 17537
L35318 17575
L35318 17612
L35299 17668
L35074 17893
L35318 17893
" />
<g transform="rotate(-90 38903.9 21000)">
<text x="38903.9" y="21196.9"
textLength="864.173" font-size="524.934" lengthAdjust="spacingAndGlyphs"
text-anchor="middle" opacity="0">U4</text>
</g>
<path d="M38688 21299
L39007 21299
L39044 21281
L39063 21262
L39082 21224
L39082 21149
L39063 21112
L39044 21093
L39007 21074
L38688 21074
" />
<path d="M38819 20718
L39082 20718
" />
<path d="M38669 20812
L38950 20906
L38950 20662
" />
<g >
</g>
</g>
<g style="fill:#000000; fill-opacity:0.0; 
stroke:#000000; stroke-width:59.0551; stroke-opacity:1; 
stroke-linecap:round; stroke-linejoin:round;">
</g>
<g style="fill:#C2C200; fill-opacity:0.0; 
stroke:#C2C200; stroke-width:59.0551; stroke-opacity:1; 
stroke-linecap:round; stroke-linejoin:round;">
</g>
<g style="fill:#C2C200; fill-opacity:0.0; 
stroke:#C2C200; stroke-width:19.685; stroke-opacity:1; 
stroke-linecap:round; stroke-linejoin:round;">
<path d="M30000 24000
L30000 18000
" />
<path d="M45400 24000
L30000 24000
" />
<path d="M45400 18000
L45400 24000
" />
<path d="M30000 18000
L45400 18000
" />
<g >
</g>
<g >
</g>
<g >
</g>
<g >
</g>
<g >
</g>
<g >
</g>
<g >
</g>
<g >
</g>
<g >
</g>
<g >
</g>
<g >
</g>
<g >
</g>
<g >
</g>
<g >
</g>
<g >
</g>
<g >
</g>
<g >
</g>
<g >
</g>
<g >
</g>
<g >
</g>
<g >
</g>
<g >
</g>
<g >
</g>
<g >
</g>
<g >
</g>
<g >
</g>
<g >
</g>
<g >
</g>
<g >
</g>
<g >
</g>
<g >
</g>
<g >
</g>
<g >
</g>
<g >
</g>
<g >
</g>
<g >
</g>
<g >
</g>
<g >
</g>
<g >
</g>
</g> 
</svg>
